<svg width="47" height="45" viewBox="0 0 47 45" fill="none" xmlns="http://www.w3.org/2000/svg">
<path d="M28.6347 5.41743L29.5169 3.75708C30.1091 4.04552 30.6864 4.36004 31.2478 4.69929L31.2483 4.69856C34.0268 6.37227 36.4197 8.66331 38.1683 11.3241L38.1676 11.3246C38.5217 11.8619 38.8504 12.4151 39.1515 12.9818L37.4175 13.8267C35.5074 10.2324 32.3881 7.24596 28.6347 5.41743ZM1.73415 31.1734L0 32.0181C0.301257 32.585 0.629754 33.1378 0.984085 33.6753L0.983436 33.6758C2.73142 36.3361 5.1244 38.6272 7.90349 40.3014L7.90392 40.3007C8.46514 40.6396 9.0429 40.9544 9.63482 41.2429L10.5172 39.5825C6.7631 37.7535 3.64395 34.767 1.73415 31.1734ZM47 34.9761L46.3864 36.744C40.159 34.7624 40.0833 30.0793 40.0165 25.9475C39.9622 22.5889 39.9145 19.615 37.0208 17.8313C37.4564 19.3324 37.6814 20.8995 37.6814 22.5C37.6814 27.1304 35.798 31.4837 32.3783 34.7579C28.8486 38.1373 24.2121 39.827 19.5758 39.827C17.6152 39.827 15.6543 39.5248 13.7774 38.9205C13.7195 38.9047 13.6619 38.8876 13.6049 38.8693L13.6065 38.8645C11.1119 38.0345 8.76932 36.6672 6.7792 34.7637C6.77704 34.7616 6.7751 34.7597 6.77304 34.7578C6.77088 34.7557 6.76893 34.7538 6.76688 34.7519C3.35123 31.4786 1.47007 27.1276 1.47007 22.5C1.47007 17.8696 3.35339 13.5164 6.77326 10.2422C10.1929 6.96798 14.7397 5.1648 19.5759 5.1648C24.4121 5.1648 28.9587 6.96798 32.3784 10.2422C33.9377 11.7352 35.1777 13.4527 36.0652 15.3184C41.8237 17.3584 41.8971 21.9004 41.9621 25.9188C42.027 29.9393 42.0831 33.4116 47 34.9761ZM3.79484 21.1453C5.20071 18.553 7.3414 15.8447 9.98548 13.3131C12.9215 10.502 16.0608 8.3193 18.8649 7.04218C14.8151 7.20881 11.0331 8.79796 8.14897 11.5594C5.25692 14.3283 3.59595 17.9617 3.4296 21.8511C3.55034 21.6061 3.67302 21.3699 3.79484 21.1453ZM6.83725 27.1788C8.29565 24.0467 10.9261 20.5722 14.2443 17.3953C17.5623 14.2185 21.1912 11.6999 24.4625 10.3036C25.7223 9.76594 26.8887 9.41572 27.9382 9.25344C26.771 8.57514 25.5216 8.04442 24.2162 7.67184C21.7996 7.32576 16.6109 9.60428 11.3612 14.6306C5.83673 19.92 3.54396 25.0796 4.19133 27.2488L4.18755 27.2498C4.56966 28.3887 5.09002 29.4809 5.74031 30.5067C5.90981 29.5016 6.2756 28.3851 6.83725 27.1788ZM11.2635 33.8454C12.0635 30.3083 15.2134 25.7396 19.0864 22.0314C22.9586 18.3241 27.7302 15.3092 31.4249 14.5439C31.7241 13.1748 31.5883 12.1202 31.0027 11.5595C30.6173 11.1905 30.0084 11.0081 29.2297 11.0081C28.1732 11.0081 26.8039 11.3438 25.2548 12.005C22.1956 13.3108 18.7739 15.6929 15.6201 18.7127C12.4662 21.7323 9.97824 25.0083 8.61442 27.9374C7.41479 30.5138 7.24076 32.571 8.14907 33.4407C8.73429 34.0009 9.8348 34.1308 11.2635 33.8454ZM29.359 17.1764C26.5378 18.3867 23.2949 20.6365 20.4621 23.3488C17.6287 26.0616 15.2782 29.1662 14.0132 31.8665C13.8006 32.3201 13.6215 32.7554 13.4761 33.1684C13.6148 33.1134 13.7551 33.0556 13.8968 32.9951C16.956 31.6893 20.3777 29.3071 23.5316 26.2874C26.6854 23.2678 29.1734 19.9918 30.5373 17.0627C30.5999 16.9282 30.6598 16.795 30.7169 16.6636C30.286 16.8024 29.8319 16.9736 29.359 17.1764ZM27.5626 30.147C30.0828 27.734 32.1981 25.0729 33.5187 22.6538C34.7337 20.428 35.2142 18.5129 34.8368 17.3997L34.841 17.3983C34.7416 17.1253 34.6343 16.8551 34.5191 16.5879C34.1633 16.321 33.6317 16.2006 32.9634 16.2206C32.7883 16.7339 32.5719 17.2681 32.3144 17.8213C30.856 20.9534 28.2254 24.4278 24.9074 27.6047C21.5893 30.7815 17.9604 33.3 14.6892 34.6964C14.1102 34.9435 13.5507 35.1511 13.0136 35.319C12.9921 35.9496 13.1151 36.4525 13.3861 36.7924C13.7031 36.9178 14.0236 37.0333 14.347 37.1385C16.6613 37.7332 22.1602 35.3195 27.5626 30.147ZM35.7357 22.554C35.575 22.8911 35.4085 23.2138 35.2431 23.5167C33.8335 26.0987 31.5946 28.9213 28.9384 31.4644C26.2747 34.0148 23.3167 36.1623 20.6091 37.5113C20.3036 37.6637 19.9786 37.8169 19.6396 37.9651C23.7566 37.9497 27.8684 36.4416 31.0027 33.4407C34.0416 30.531 35.7212 26.6667 35.7357 22.554Z" fill="#FF8947"/>
</svg>
