<svg width="217" height="224" viewBox="0 0 217 224" fill="none" xmlns="http://www.w3.org/2000/svg">
<path fill-rule="evenodd" clip-rule="evenodd" d="M121.284 51.3243C116.523 55.794 111.756 60.268 103.274 63.3956C96.1893 66.0073 88.5523 66.595 81.3668 67.1479C75.0508 67.6339 69.084 68.093 64.1502 69.8766C53.6041 73.689 43.0397 81.8849 40.6762 95.4193C38.3734 108.606 42.5741 118.136 51.2225 127.444C52.2425 128.541 53.3172 129.526 54.439 130.407L84.2787 98.3602L88.3617 101.41L92.444 104.46L64.4897 135.42C81.2502 140.068 102.185 131.174 111.438 124.394C116.733 120.514 119.902 116.063 122.867 111.898C126.603 106.65 130.016 101.856 136.953 99.2318C140.869 97.751 145.279 97.5581 149.666 97.3659C155.959 97.0907 162.207 96.8177 166.891 92.7505C174.877 85.8194 177.778 76.7388 177.778 69.1141C177.778 61.4893 175.737 52.6743 166.891 45.4773C158.047 38.2802 146.139 35.184 133.892 41.665C128.579 44.4768 124.932 47.8993 121.284 51.3243ZM147.591 108.367C147.21 108.374 146.84 108.382 146.479 108.382C142.737 108.382 132.871 110.288 127.428 115.244C124.117 118.258 122.699 122.357 121.175 126.763C120.496 128.722 119.797 130.743 118.901 132.755C119.388 132.822 119.868 132.921 120.341 133.053C124.681 127.934 129.174 127.798 129.598 131.147C129.807 132.786 129.04 135.259 126.805 138.391C130.408 142.043 133.608 153.259 132.928 165.077C132.575 171.205 130.973 166.162 129.401 161.212C127.942 156.617 126.508 152.102 126.124 156.69C125.726 161.454 125.924 164.981 126.124 168.508C126.255 170.827 126.386 173.145 126.347 175.815C127.289 175.614 128.22 175.372 129.129 175.098C136.958 172.736 145.054 166.997 150.114 163.411C150.77 162.946 151.376 162.517 151.922 162.136C152.139 161.985 152.364 161.83 152.596 161.669L152.598 161.668C157.453 158.309 165.377 152.828 169.273 141.549C173.355 129.731 169.273 120.628 162.129 114.1C155.673 108.202 151.162 108.294 147.591 108.367ZM123.176 176.322C122.663 174.088 122.154 171.912 121.701 170.795C121.147 169.429 120.34 172.187 119.444 176.436C120.678 176.496 121.929 176.452 123.176 176.322Z" fill="#FF8947"/>
<path d="M34.2693 159.74L38.3517 156.69M43.1145 149.827L46.1764 146.777M88.3617 101.41C101.246 83.3038 123.23 80.3545 141.155 76.3254M129.599 131.147C146.269 123.903 156.384 134.815 169.67 128.859C176.474 125.809 188.69 115.654 189.742 104.46C190.422 97.2164 188.562 93.2987 182.597 88.4484C172.382 80.141 161.505 92.2609 146.876 85.0172C142.696 82.947 141.416 80.1082 141.155 76.3254M129.599 131.147C129.807 132.786 129.04 135.258 126.805 138.391M129.599 131.147C129.174 127.798 124.681 127.934 120.341 133.053M120.341 133.053C126.805 125.428 133.608 128.859 126.805 138.391M120.341 133.053C106.732 129.241 86.6793 153.337 89.3823 152.496C101.629 148.684 107.425 151.118 104.011 152.496C95.5058 155.927 85.3 167.364 87.0007 169.27C87.8796 170.256 91.6947 168.423 94.6927 166.984C97.4974 165.637 99.5867 164.634 97.8873 166.602C87.6809 178.42 85.3 194.559 86.3206 195.576C87.9243 197.173 90.5548 193.959 93.0876 190.865C95.3898 188.052 97.612 185.337 98.9079 186.426C99.1168 186.601 98.6455 188.89 98.0318 191.869C96.8227 197.741 95.0609 206.294 96.8668 206.632C98.1416 206.871 102.246 199.52 105.834 193.09C109.04 187.347 111.836 182.34 111.836 184.138C111.836 184.49 111.834 184.844 111.833 185.201C111.819 189.866 111.803 194.907 114.217 198.626C115.041 199.895 116.423 192.421 117.824 184.853C119.314 176.796 120.824 168.633 121.701 170.795C122.18 171.976 122.722 174.342 123.264 176.707C124.422 181.761 125.581 186.816 126.124 180.327C126.523 175.562 126.323 172.035 126.124 168.508C125.924 164.981 125.726 161.454 126.124 156.69C126.508 152.102 127.942 156.616 129.401 161.212C130.973 166.161 132.575 171.205 132.928 165.077C133.608 153.259 130.408 142.043 126.805 138.391M120.341 133.053C120.577 134.53 120.954 135.603 121.701 136.403M126.805 138.391C124.192 137.99 122.648 137.416 121.701 136.403M121.701 136.403C112.877 146.013 105.372 160.884 105.372 178.42M144.495 154.021C145.53 158.723 145.602 161.463 144.495 166.602M149.938 147.921C152.287 151.047 153.245 153.079 153 158.215M88.3617 101.41L92.444 104.46L34.2693 168.889L27.125 159.74L84.2787 98.3602L88.3617 101.41ZM141.155 76.3254C140.982 73.811 141.258 70.8796 141.433 67.4801C141.972 57.0111 149.479 50.2101 153.68 48.0371C158.103 45.7497 163.621 43.8369 167.628 48.0371C171.587 52.1852 169.379 58.8738 167.628 62.1429C163.151 70.5054 153.046 73.6529 141.155 76.3254Z" stroke="black" stroke-width="2" stroke-linecap="round"/>
</svg>
