<svg width="321" height="258" viewBox="0 0 321 258" fill="none" xmlns="http://www.w3.org/2000/svg">
<path fill-rule="evenodd" clip-rule="evenodd" d="M179.417 81.7773C172.401 87.3452 165.378 92.9187 152.878 96.8152C142.44 100.069 131.186 100.801 120.598 101.489C111.291 102.095 102.498 102.667 95.228 104.888C79.6877 109.638 64.1206 119.847 60.6379 136.708C57.2447 153.135 63.4346 165.007 76.1784 176.602C77.5941 177.889 79.0813 179.053 80.6307 180.1C79.5604 176.196 78.9229 172.117 78.7686 167.917C77.6874 138.487 101.793 113.035 132.408 111.475C133.569 111.416 134.739 111.391 135.917 111.402C152.153 111.548 166.585 118.141 176.751 128.592C177.515 117.125 185.046 107.143 196.074 102.997C199.596 101.674 203.475 100.945 207.604 100.953C212.652 100.964 217.612 102.239 222.142 104.344C233.282 109.52 241.824 119.72 242.695 128.499C242.937 130.93 242.966 133.32 242.783 135.642C244.126 135.018 245.41 134.274 246.622 133.384C258.389 124.749 262.664 113.437 262.664 103.939C262.664 94.4402 259.656 83.4592 246.622 74.4935C233.589 65.5279 216.043 61.6707 197.996 69.7443C190.166 73.2471 184.794 77.5106 179.417 81.7773ZM193.735 158.242C202.228 163.288 212.692 165.234 222.142 162.218C226.585 160.8 230.309 158.642 233.321 155.922C235.268 156.923 237.355 158.243 239.603 159.979C250.131 168.11 256.147 179.451 250.131 194.174C244.39 208.224 232.714 215.051 225.56 219.236L225.553 219.24L225.544 219.245C225.207 219.442 224.881 219.633 224.565 219.819C223.759 220.293 222.867 220.827 221.899 221.408C214.444 225.875 202.514 233.024 190.977 235.966C177.943 239.291 161.901 238.816 155.385 224.569C154.283 222.16 153.819 219.882 153.853 217.691C176.397 210.234 192.283 189.484 192.063 165.542C192.044 163.44 191.903 161.366 191.645 159.325C192.319 158.945 193.018 158.585 193.735 158.242Z" fill="#FF8947"/>
<g filter="url(#filter0_d_123_393)">
<path d="M222.142 165.049C211.741 168.369 200.113 165.678 191.234 159.458M222.142 165.049C222.142 165.049 216.172 157.105 214.121 151.277C213.118 148.428 213.118 144.628 220.137 144.628C227.155 144.628 236.692 152.994 240.085 149.378M222.142 165.049C230.905 162.253 236.873 156.579 240.085 149.378M191.234 159.458C191.752 162.36 192.035 165.339 192.063 168.374C192.316 195.86 171.341 219.138 143.437 222.927M191.234 159.458C189.577 150.192 185.512 141.709 179.656 134.655M240.085 149.378C242.474 144.02 243.339 137.819 242.695 131.33C241.824 122.552 233.282 112.352 222.142 107.176M176.751 131.424C166.585 120.972 152.153 114.379 135.918 114.234C134.739 114.223 133.569 114.248 132.409 114.306M176.751 131.424C177.762 132.464 178.731 133.541 179.656 134.655M176.751 131.424C177.515 119.956 185.047 109.974 196.074 105.829M132.409 114.306C101.793 115.867 77.6875 141.319 78.7687 170.749C79.2667 184.309 84.8029 196.597 93.6663 205.893M132.409 114.306C132.409 114.306 114.361 136.08 115.865 155.551C116.421 162.747 122.294 168.054 129.902 168.374C152.46 169.325 151.959 138.455 179.656 134.655M196.074 105.829C199.596 104.505 203.475 103.776 207.604 103.785C212.653 103.796 217.612 105.071 222.142 107.176M196.074 105.829C203.432 107.499 196.575 123.825 203.593 131.424C206.956 135.064 211.884 135.571 215.625 132.28C222.644 126.106 217.5 108.048 222.142 107.176M143.437 222.927C140.981 223.261 138.471 223.444 135.918 223.465C119.09 223.604 104.081 216.815 93.6663 205.893M143.437 222.927C137.421 203.993 148.451 198.294 137.421 188.321C130.403 181.974 118.873 179.772 106.34 186.421C97.5238 191.099 93.6663 205.893 93.6663 205.893M91.8026 152.227L90.2987 160.775M102.33 155.551L101.328 160.775M93.6663 170.749L91.8026 178.823M158.977 194.97V202.568M169.505 188.321V194.97M258.737 144.628C261.295 151.85 261.347 155.741 257.233 162.2M271.771 142.253C273.766 148.076 274.456 151.319 273.275 156.976M67.2387 118.508C63.2236 123.659 62.6815 126.705 63.2282 132.28M51.1969 126.582C47.261 131.859 46.435 135.265 47.6878 142.253" stroke="black" stroke-width="2" stroke-linecap="round" shape-rendering="crispEdges"/>
</g>
<defs>
<filter id="filter0_d_123_393" x="42.147" y="102.785" width="236.706" height="129.682" filterUnits="userSpaceOnUse" color-interpolation-filters="sRGB">
<feFlood flood-opacity="0" result="BackgroundImageFix"/>
<feColorMatrix in="SourceAlpha" type="matrix" values="0 0 0 0 0 0 0 0 0 0 0 0 0 0 0 0 0 0 127 0" result="hardAlpha"/>
<feOffset dy="4"/>
<feGaussianBlur stdDeviation="2"/>
<feComposite in2="hardAlpha" operator="out"/>
<feColorMatrix type="matrix" values="0 0 0 0 0 0 0 0 0 0 0 0 0 0 0 0 0 0 0.25 0"/>
<feBlend mode="normal" in2="BackgroundImageFix" result="effect1_dropShadow_123_393"/>
<feBlend mode="normal" in="SourceGraphic" in2="effect1_dropShadow_123_393" result="shape"/>
</filter>
</defs>
</svg>
