<svg width="45" height="46" viewBox="0 0 45 46" fill="none" xmlns="http://www.w3.org/2000/svg">
<path d="M6.89587 27.302C5.65477 27.8546 4.42424 27.9036 3.2043 27.4489C1.98435 26.9942 1.10343 26.1583 0.561535 24.9412C0.0196422 23.7241 -0.0121004 22.5101 0.466308 21.2993C0.944717 20.0884 1.80447 19.2067 3.04558 18.6541C4.28669 18.1016 5.51721 18.0526 6.73716 18.5073C7.9571 18.962 8.83803 19.7979 9.37992 21.015C9.92181 22.2321 9.95355 23.4461 9.47515 24.6569C8.99674 25.8678 8.13698 26.7495 6.89587 27.302ZM12.3228 15.0993C11.0817 15.6519 9.85119 15.7008 8.63124 15.2462C7.4113 14.7915 6.53038 13.9556 5.98849 12.7385C5.44659 11.5213 5.41485 10.3074 5.89326 9.09653C6.37167 7.8857 7.23142 7.00399 8.47253 6.45141C9.71364 5.89884 10.9442 5.84989 12.1641 6.30457C13.3841 6.75925 14.265 7.59515 14.8069 8.81226C15.3488 10.0294 15.3805 11.2434 14.9021 12.4542C14.4237 13.665 13.5639 14.5467 12.3228 15.0993ZM24.5706 9.64626C23.3295 10.1988 22.0989 10.2478 20.879 9.7931C19.6591 9.33842 18.7781 8.50252 18.2362 7.28541C17.6943 6.0683 17.6626 4.85432 18.141 3.64348C18.6194 2.43264 19.4792 1.55094 20.7203 0.998361C21.9614 0.445784 23.1919 0.396838 24.4119 0.85152C25.6318 1.3062 26.5127 2.1421 27.0546 3.35921C27.5965 4.57632 27.6283 5.7903 27.1498 7.00114C26.6714 8.21198 25.8117 9.09369 24.5706 9.64626ZM37.2703 13.7785C36.0292 14.331 34.7987 14.38 33.5787 13.9253C32.3588 13.4706 31.4779 12.6347 30.936 11.4176C30.3941 10.2005 30.3623 8.98653 30.8407 7.77569C31.3191 6.56485 32.1789 5.68314 33.42 5.13056C34.6611 4.57799 35.8916 4.52904 37.1116 4.98372C38.3315 5.43841 39.2125 6.27431 39.7543 7.49142C40.2962 8.70853 40.328 9.92251 39.8496 11.1333C39.3712 12.3442 38.5114 13.2259 37.2703 13.7785ZM20.3691 44.9061C18.9974 45.5168 17.646 45.514 16.3149 44.8977C14.9839 44.2814 14.0118 43.2846 13.3986 41.9074C12.7997 40.5622 12.6849 39.1837 13.0543 37.7719C13.4237 36.3601 13.868 34.963 14.3874 33.5804C14.7922 32.5558 15.1302 31.5131 15.4013 30.452C15.6725 29.391 15.9003 28.3206 16.0848 27.2406C16.4045 25.4096 16.8813 23.6238 17.5152 21.8832C18.1491 20.1426 19.3152 18.8942 21.0136 18.1381C22.7119 17.3819 24.4281 17.347 26.1621 18.0333C27.8961 18.7197 29.5576 19.5727 31.1464 20.5923C32.0724 21.1778 33.0087 21.7205 33.9551 22.2201C34.9016 22.7198 35.891 23.162 36.9232 23.5468C38.2982 24.0859 39.6338 24.6906 40.9302 25.3608C42.2265 26.0309 43.1741 27.0386 43.773 28.3838C44.3862 29.7611 44.4765 31.1505 44.0439 32.552C43.6112 33.9535 42.709 34.9597 41.3373 35.5704C39.5736 36.3557 37.7621 36.9895 35.9027 37.4719C34.0434 37.9544 32.2318 38.5882 30.4682 39.3735C28.7045 40.1587 27.0213 41.0808 25.4186 42.1398C23.816 43.1987 22.1328 44.1208 20.3691 44.9061Z" fill="#FFDDCA"/>
</svg>
